<?xml version="1.0" encoding="UTF-8" standalone="no"?>
<svg
   xmlns:dc="http://purl.org/dc/elements/1.1/"
   xmlns:cc="http://creativecommons.org/ns#"
   xmlns:rdf="http://www.w3.org/1999/02/22-rdf-syntax-ns#"
   xmlns:svg="http://www.w3.org/2000/svg"
   xmlns="http://www.w3.org/2000/svg"
   xmlns:sodipodi="http://sodipodi.sourceforge.net/DTD/sodipodi-0.dtd"
   xmlns:inkscape="http://www.inkscape.org/namespaces/inkscape"
   width="2.8594718in"
   height="2.319056in"
   viewBox="0 0 72.630584 58.904023"
   version="1.1"
   id="svg8"
   inkscape:version="1.0.2 (e86c870879, 2021-01-15)"
   sodipodi:docname="twitter-logo.svg">
  <defs
     id="defs2" />
  <sodipodi:namedview
     id="base"
     pagecolor="#ffffff"
     bordercolor="#666666"
     borderopacity="1.0"
     inkscape:pageopacity="0.0"
     inkscape:pageshadow="2"
     inkscape:zoom="0.90549364"
     inkscape:cx="71.116929"
     inkscape:cy="195.93351"
     inkscape:document-units="mm"
     inkscape:current-layer="layer1"
     inkscape:document-rotation="0"
     showgrid="false"
     inkscape:window-width="1366"
     inkscape:window-height="704"
     inkscape:window-x="0"
     inkscape:window-y="0"
     inkscape:window-maximized="1"
     fit-margin-top="0"
     fit-margin-left="0"
     fit-margin-right="0"
     fit-margin-bottom="0"
     units="in" />
  <metadata
     id="metadata5">
    <rdf:RDF>
      <cc:Work
         rdf:about="">
        <dc:format>image/svg+xml</dc:format>
        <dc:type
           rdf:resource="http://purl.org/dc/dcmitype/StillImage" />
        <dc:title></dc:title>
      </cc:Work>
    </rdf:RDF>
  </metadata>
  <g
     inkscape:label="Capa 1"
     inkscape:groupmode="layer"
     id="layer1"
     transform="translate(-74.997977,-83.589892)">
    <path
       style="fill:#00acee;fill-opacity:1;stroke:none;stroke-width:0.264583px;stroke-linecap:butt;stroke-linejoin:miter;stroke-opacity:1"
       d="m 74.997977,135.80703 c 0,0 14.194329,1.45928 21.802205,-6.58029 -13.010247,-1.26888 -13.418817,-10.37536 -13.418817,-10.37536 1.562586,1.17021 6.497029,0.19966 6.497029,0.19966 -13.101211,-2.97562 -11.628819,-14.15578 -11.628819,-14.15578 6.925642,2.37433 7.588605,0.77397 7.588605,0.77397 -12.817525,-4.9992 -5.596634,-19.105647 -5.596634,-19.105647 12.28253,15.850187 29.934284,14.902007 29.934284,14.902007 0.42168,-24.672213 23.88591,-18.272436 25.7574,-13.023685 l 9.37574,-3.247414 c 0,0 -2.27732,4.836074 -6.34111,7.688381 l 8.6607,-1.975344 -7.93087,7.683423 c 2.86616,15.177199 -18.58453,60.914669 -64.699713,37.216079 z"
       id="path1023"
       sodipodi:nodetypes="cccccccccccccc" />
  </g>
</svg>
